<svg id="Layer_1" data-name="Layer 1" xmlns="http://www.w3.org/2000/svg" viewBox="0 0 59.67 49.33"><defs><style>.cls-1{fill:#3f694e;}.cls-2{fill:none;stroke:#3f694e;stroke-miterlimit:10;}</style></defs><title>logo</title><path class="cls-1" d="M12.44,6.6l1.61-1.07c1.12-.74,1.91-.6,2.53.33l.25.38a1.33,1.33,0,0,1,.09,1.67h0c.64-.21,1.12.13,1.58.81l.71,1.07a2.06,2.06,0,0,0,.61.66l-1.1.73a1.9,1.9,0,0,1-.6-.68L17.39,9.4c-.37-.57-.68-.62-1.18-.3l-.37.25L17.58,12l-1.09.72Zm3.22,1.62a.67.67,0,0,0,.22-1.07l-.32-.47c-.28-.43-.58-.51-1-.26l-.49.33,1.15,1.73Z"/><path class="cls-1" d="M17.56,3.49l3.28-1.36.39,1L19.16,4l.74,1.79,1.64-.68.4,1L20.3,6.7l.85,2.08,2.08-.86.39,1-3.27,1.36Z"/><path class="cls-1" d="M23.08,4.73l2.53-.61.24,1-2.53.61Z"/><path class="cls-1" d="M27,6.36l-.32-3.9A1.69,1.69,0,0,1,28.47.51a1.68,1.68,0,0,1,2.05,1.64l.07.76L29.36,3l-.07-.85A.65.65,0,1,0,28,2.28l.33,4.06a.65.65,0,1,0,1.3-.1l-.09-1.12L30.76,5l.09,1a1.69,1.69,0,0,1-1.77,2A1.68,1.68,0,0,1,27,6.36Z"/><path class="cls-1" d="M33,4.76,31.81.44l1.37.13.64,2.75h0L35,.73l1.26.12-1.95,4L34,8,32.7,7.86Z"/><path class="cls-1" d="M36.15,6.55l1-3.78a1.68,1.68,0,0,1,2.32-1.23,1.68,1.68,0,0,1,1.37,2.24l-.2.74L39.49,4.2l.22-.81a.59.59,0,0,0-.44-.83.6.6,0,0,0-.81.48L37.38,7a.65.65,0,1,0,1.25.35l.3-1.08,1.18.33-.27,1a1.67,1.67,0,0,1-2.32,1.22A1.67,1.67,0,0,1,36.15,6.55Z"/><path class="cls-1" d="M43.11,2.85l1.17.56-2.7,5.64,1.93.93-.45.94L40,9.44Z"/><path class="cls-1" d="M47.75,5.27l2.87,2.09L50,8.2,48.19,6.88,47.05,8.44l1.44,1.05-.61.84L46.43,9.28l-1.32,1.81,1.82,1.32-.62.85-2.86-2.09Z"/><circle class="cls-2" cx="20.83" cy="29.55" r="4.94"/><circle class="cls-2" cx="38.25" cy="29.8" r="4.94"/><circle class="cls-2" cx="28.68" cy="29.87" r="1.57"/><path class="cls-2" d="M20.83,30,28,22.27h7.79L35,19.67l4,0a1.42,1.42,0,0,1,0,2.18l-1.34,0"/><polyline class="cls-2" points="28.59 31.3 28.58 32.48 27.11 32.48"/><polyline class="cls-2" points="38.29 30.05 35.74 22.27 29.92 28.59 28.98 28.25 28.34 28.28 27.95 19.8"/><path class="cls-2" d="M26.07,20.47s0-.7.43-.87a22.94,22.94,0,0,1,3.42,0"/><line class="cls-2" x1="27.11" y1="29.97" x2="20.96" y2="29.93"/><circle class="cls-2" cx="21" cy="29.76" r="0.75"/><circle class="cls-2" cx="38.2" cy="29.79" r="0.75"/><path class="cls-2" d="M20.83,23.3a5.93,5.93,0,0,1,6,4.07"/><path class="cls-2" d="M46.3,16.92a22.06,22.06,0,0,0-31.39-.42"/><line class="cls-2" x1="0.38" y1="27.98" x2="11.61" y2="28.15"/><line class="cls-2" x1="48.11" y1="28.44" x2="59.34" y2="28.62"/><line class="cls-2" x1="3.98" y1="30.38" x2="13.09" y2="30.54"/><line class="cls-2" x1="46.39" y1="30.72" x2="55.5" y2="30.88"/><path class="cls-1" d="M12.53,47.29V43.53a1.51,1.51,0,0,1,1.62-1.72,1.51,1.51,0,0,1,1.62,1.72v.74h-1v-.81c0-.46-.22-.65-.55-.65s-.55.19-.55.65v3.91c0,.46.22.64.55.64s.55-.18.55-.64V46.3h1v1A1.51,1.51,0,0,1,14.15,49,1.51,1.51,0,0,1,12.53,47.29Z"/><path class="cls-1" d="M16.69,41.91h1.09v7H16.69Z"/><path class="cls-1" d="M19.71,42.91H18.56v-1H22v1H20.81v6h-1.1Z"/><path class="cls-1" d="M23.79,45.93l-1.33-4h1.17l.75,2.57h0l.75-2.57h1.07l-1.33,4v3h-1.1Z"/><path class="cls-1" d="M29.68,42.91H28.53v-1h3.4v1H30.78v6h-1.1Z"/><path class="cls-1" d="M32.59,47.25V43.57a1.67,1.67,0,1,1,3.34,0v3.68a1.67,1.67,0,1,1-3.34,0Zm2.24.07V43.5c0-.5-.22-.69-.57-.69s-.57.19-.57.69v3.82c0,.5.22.69.57.69S34.83,47.82,34.83,47.32Z"/><path class="cls-1" d="M36.88,47.25V41.91H38v5.42c0,.5.21.68.56.68s.56-.18.56-.68V41.91h1.06v5.34c0,1.12-.56,1.76-1.64,1.76S36.88,48.37,36.88,47.25Z"/><path class="cls-1" d="M41.19,41.91h1.63c1.14,0,1.63.53,1.63,1.61V44c0,.72-.23,1.18-.72,1.38v0c.55.17.73.69.73,1.48v1.23a2.06,2.06,0,0,0,.12.85H43.46a2.15,2.15,0,0,1-.1-.86V46.77c0-.65-.19-.86-.69-.86h-.38v3h-1.1Zm1.5,3c.41,0,.66-.18.66-.74v-.54c0-.5-.17-.72-.56-.72h-.5v2Z"/><path class="cls-1" d="M45.28,47.25v-.4h1v.48c0,.5.22.68.57.68s.57-.18.57-.7-.22-1-.94-1.58a2.71,2.71,0,0,1-1.22-2.18,1.53,1.53,0,0,1,1.64-1.74c1.07,0,1.6.64,1.6,1.76v.29h-1V43.5c0-.5-.2-.69-.55-.69s-.55.19-.55.67.23.88,1,1.51a2.71,2.71,0,0,1,1.21,2.24A1.55,1.55,0,0,1,46.9,49C45.82,49,45.28,48.37,45.28,47.25Z"/><line class="cls-2" x1="4.19" y1="39.02" x2="54.86" y2="39.68"/></svg>